<svg xmlns="http://www.w3.org/2000/svg" width="225.807" height="175.048" viewBox="0 0 59.745 46.315"><g transform="translate(-152.44 -5313.084) scale(19.17013)"><ellipse transform="scale(-1 1) rotate(9.493)" ry=".174" rx=".009" cy="276.469" cx="36.342" fill="#333"/><ellipse transform="rotate(9.493)" ry=".174" rx=".009" cy="273.27" cx="55.507" fill="#333"/><ellipse ry=".165" rx=".028" cy="278.662" cx="9.713" fill="#333"/><ellipse ry=".159" rx=".062" cy="278.362" cx="9.712" fill="#333"/><ellipse transform="scale(-1 1) rotate(9.493)" ry=".174" rx=".009" cy="276.414" cx="36.639" fill="#333"/><ellipse transform="rotate(9.493)" ry=".174" rx=".009" cy="273.319" cx="55.199" fill="#333"/><ellipse ry=".21" rx=".08" cy="278.311" cx="9.411" fill="#333"/><ellipse ry=".165" rx=".028" cy="278.648" cx="9.41" fill="#333"/><ellipse transform="scale(-1 1) rotate(9.493)" ry=".174" rx=".009" cy="276.503" cx="36.033" fill="#333"/><ellipse transform="rotate(9.493)" ry=".174" rx=".009" cy="273.202" cx="55.811" fill="#333"/><ellipse ry=".165" rx=".028" cy="278.645" cx="10.024" fill="#333"/><ellipse ry=".159" rx=".062" cy="278.345" cx="10.023" fill="#333"/><ellipse transform="scale(-1 1) rotate(9.493)" ry=".174" rx=".009" cy="276.329" cx="37.14" fill="#333"/><ellipse transform="rotate(9.493)" ry=".174" rx=".009" cy="273.402" cx="54.698" fill="#333"/><ellipse ry=".21" rx=".08" cy="278.31" cx="8.903" fill="#333"/><ellipse ry=".165" rx=".028" cy="278.647" cx="8.902" fill="#333"/><ellipse transform="scale(-1 1) rotate(9.493)" ry=".134" rx=".007" cy="276.348" cx="36.915" fill="#333"/><ellipse transform="rotate(9.493)" ry=".134" rx=".007" cy="273.338" cx="54.942" fill="#333"/><ellipse ry=".127" rx=".022" cy="278.64" cx="9.137" fill="#333"/><ellipse ry=".122" rx=".048" cy="278.409" cx="9.136" fill="#333"/><path d="M8.478 278.372a.18.168 0 00-.178.147.331.23 0 00-.263.225.331.23 0 00.095.161.416.223 0 00.415.204.416.223 0 00.077-.004.938.175 0 00.872.11.938.175 0 00.834-.094.453.148 0 00.022-.003.498.146 0 00.377-.125.274.237 0 00.266-.236.274.237 0 00-.246-.236.188.234 0 00-.165-.124.188.234 0 00-.071.018.082.1 0 00-.05-.02.082.1 0 00-.082.1.082.1 0 00.023.069.188.234 0 00-.008.067.188.234 0 000 .014.094.085 0 00-.087.066.201.079 0 00-.14.074.516.094 0 00-.456.086.938.175 0 00-.217-.005.938.175 0 00-.22.005.482.168 0 00-.401-.123.416.223 0 00-.192-.073.331.23 0 00-.043-.062.18.168 0 00.019-.073.18.168 0 00-.18-.168z" fill="#ac9d93"/><path d="M9.502 277.72a.772.543 0 00-.773.543.772.543 0 000 .002.131.161 0 00-.077.147.131.161 0 00.021.088.856.22 0 00-.027.055.856.22 0 00.55.206.772.543 0 00.306.045.772.543 0 00.303-.044.856.22 0 00.552-.206.856.22 0 00-.003-.015.123.192 0 00.035-.133.123.192 0 00-.119-.192.772.543 0 00-.769-.495z" opacity=".334" fill="#aef"/><ellipse ry=".065" rx=".067" cy="277.306" cx="9.51" fill="#666"/><path d="M9.51 279.29c-.755 0-1.558-.186-1.558-.533 0-.186.252-.349.692-.446a.047.047 0 01.02.092c-.375.083-.618.222-.618.354 0 .208.602.44 1.464.44.863 0 1.464-.232 1.464-.44 0-.132-.242-.27-.617-.354a.047.047 0 01-.036-.057.048.048 0 01.056-.035c.44.097.691.26.691.446 0 .347-.802.534-1.558.534z"/><path d="M9.515 278.88c-.446 0-.92-.115-.92-.328a.047.047 0 01.094 0c0 .098.314.234.826.234s.827-.136.827-.234a.047.047 0 01.094 0c0 .213-.474.328-.92.328z"/><path d="M10.389 278.6a.047.047 0 01-.047-.048.832.832 0 00-1.663 0 .047.047 0 01-.095 0 .927.927 0 011.852 0 .047.047 0 01-.047.047zM10.623 279.569h-.146a.047.047 0 01-.042-.026l-.173-.342a.047.047 0 11.084-.043l.16.316h.118a.047.047 0 110 .095zM8.544 279.57h-.147a.047.047 0 010-.094h.118l.16-.316a.047.047 0 01.084.043l-.173.341a.047.047 0 01-.042.026z"/><path d="M9.51 277.72a.047.047 0 01-.047-.046v-.26a.047.047 0 01.094 0v.26a.047.047 0 01-.047.047z"/><path d="M9.51 277.461a.154.154 0 110-.307.154.154 0 010 .307zm0-.212a.059.059 0 100 .118.059.059 0 000-.118z"/></g></svg>