<svg xmlns="http://www.w3.org/2000/svg" width="225.807" height="175.048" viewBox="0 0 59.745 46.315"><a transform="translate(-51.69 -5321.42) scale(19.17013)"><g transform="translate(-1.42 .417)"><ellipse transform="scale(-1 1) rotate(9.493)" ry=".174" rx=".009" cy="275.809" cx="40.334" fill="#333"/><ellipse transform="rotate(9.493)" ry=".174" rx=".009" cy="273.95" cx="51.509" fill="#333"/><ellipse ry=".21" rx=".08" cy="278.324" cx="5.667" fill="#333"/><ellipse ry=".165" rx=".028" cy="278.661" cx="5.666" fill="#333"/><path d="M4.642 278.39a.18.168 0 00-.179.147.331.23 0 00-.263.224.331.23 0 00.096.162.416.223 0 00.415.204.416.223 0 00.076-.004.938.175 0 00.872.11.938.175 0 00.835-.095.453.148 0 00.021-.003.498.146 0 00.378-.124.274.237 0 00.266-.237.274.237 0 00-.246-.236.188.234 0 00-.166-.123.188.234 0 00-.07.017.082.1 0 00-.05-.02.082.1 0 00-.082.1.082.1 0 00.023.07.188.234 0 00-.008.067.188.234 0 000 .013.094.085 0 00-.087.067.201.079 0 00-.14.074.516.094 0 00-.457.085.938.175 0 00-.217-.005.938.175 0 00-.22.005.482.168 0 00-.4-.123.416.223 0 00-.192-.073.331.23 0 00-.043-.061.18.168 0 00.018-.074.18.168 0 00-.18-.168z" fill="#d45500"/><path d="M5.665 277.738a.772.543 0 00-.772.543.772.543 0 000 .002.131.161 0 00-.077.147.131.161 0 00.021.088.856.22 0 00-.027.055.856.22 0 00.549.206.772.543 0 00.306.044.772.543 0 00.303-.044.856.22 0 00.553-.206.856.22 0 00-.003-.015.123.192 0 00.034-.133.123.192 0 00-.118-.191.772.543 0 00-.769-.496z" opacity=".334" fill="#aef"/><ellipse ry=".065" rx=".067" cy="277.323" cx="5.674" fill="#d40000"/><path d="M5.674 279.308c-.756 0-1.558-.187-1.558-.533 0-.187.252-.35.691-.447a.047.047 0 01.02.092c-.375.083-.617.223-.617.355 0 .207.601.439 1.464.439s1.464-.232 1.464-.44c0-.131-.243-.27-.618-.354a.047.047 0 01-.036-.056.048.048 0 01.057-.036c.44.098.691.26.691.447 0 .346-.803.533-1.558.533z"/><path d="M5.679 278.898c-.446 0-.92-.115-.92-.328a.047.047 0 01.094 0c0 .097.314.233.826.233s.826-.136.826-.233a.047.047 0 01.095 0c0 .213-.475.328-.921.328z"/><path d="M6.552 278.617a.047.047 0 01-.047-.047.832.832 0 00-1.663 0 .047.047 0 01-.094 0 .927.927 0 011.852 0 .047.047 0 01-.048.047zM6.787 279.586h-.146a.047.047 0 01-.043-.026l-.173-.342a.047.047 0 11.085-.042l.16.316h.117a.047.047 0 110 .094zM4.707 279.588h-.146a.047.047 0 010-.095h.117l.16-.316a.047.047 0 01.084.043l-.172.342a.047.047 0 01-.043.026z"/><path d="M5.674 277.738a.047.047 0 01-.047-.047v-.26a.047.047 0 01.094 0v.26a.047.047 0 01-.047.047z"/><path d="M5.674 277.479a.154.154 0 110-.308.154.154 0 010 .308zm0-.213a.059.059 0 100 .118.059.059 0 000-.118z"/></g></a></svg>