<svg xmlns="http://www.w3.org/2000/svg" width="225.807" height="175.048" viewBox="0 0 59.745 46.315"><g transform="translate(3.856 -5302.97) scale(19.17013)"><ellipse cx="44.434" cy="274.554" rx=".009" ry=".174" transform="scale(-1 1) rotate(9.493)" fill="#333"/><ellipse cx="47.233" cy="274.092" rx=".009" ry=".174" transform="rotate(9.493)" fill="#333"/><ellipse cx="1.417" cy="278.108" rx=".028" ry=".165" fill="#333"/><ellipse cx="1.415" cy="277.808" rx=".062" ry=".159" fill="#333"/><ellipse cx="44.731" cy="274.499" rx=".009" ry=".174" transform="scale(-1 1) rotate(9.493)" fill="#333"/><ellipse cx="46.925" cy="274.141" rx=".009" ry=".174" transform="rotate(9.493)" fill="#333"/><ellipse cx="1.114" cy="277.757" rx=".08" ry=".21" fill="#333"/><ellipse cx="1.113" cy="278.094" rx=".028" ry=".165" fill="#333"/><path d="M.325 277.845a.18.168 0 00-.178.147.331.23 0 00-.263.224.331.23 0 00.095.162.416.223 0 00.415.204.416.223 0 00.077-.004.938.175 0 00.872.11.938.175 0 00.834-.095.453.148 0 00.022-.003.498.146 0 00.377-.124.274.237 0 00.266-.237.274.237 0 00-.246-.236.188.234 0 00-.165-.123.188.234 0 00-.071.017.082.1 0 00-.05-.02.082.1 0 00-.082.1.082.1 0 00.023.07.188.234 0 00-.008.067.188.234 0 000 .013.094.085 0 00-.087.067.201.079 0 00-.14.074.516.094 0 00-.456.085.938.175 0 00-.217-.005.938.175 0 00-.22.005.482.168 0 00-.401-.123.416.223 0 00-.192-.073.331.23 0 00-.043-.061.18.168 0 00.018-.074.18.168 0 00-.18-.168z" fill="#500f22"/><path d="M1.357 277.18a.772.556 0 00-.772.557.772.556 0 000 .002.131.165 0 00-.077.15.131.165 0 00.021.09.856.226 0 00-.027.057.856.226 0 00.549.211.772.556 0 00.306.046.772.556 0 00.303-.046.856.226 0 00.553-.21.856.226 0 00-.003-.016.123.197 0 00.034-.136.123.197 0 00-.118-.197.772.556 0 00-.769-.507z" opacity=".334" fill="#aef"/><ellipse cx="1.357" cy="276.778" rx=".067" ry=".065" fill="#cf0"/><path d="M1.357 278.763c-.755 0-1.558-.187-1.558-.533 0-.187.252-.35.692-.447a.047.047 0 01.02.092c-.375.083-.618.223-.618.355 0 .207.602.439 1.464.439.863 0 1.464-.232 1.464-.44 0-.131-.242-.27-.617-.354a.047.047 0 01-.036-.056.048.048 0 01.056-.036c.44.098.691.26.691.447 0 .346-.802.533-1.558.533z"/><path d="M1.362 278.353c-.446 0-.92-.115-.92-.328a.047.047 0 01.094 0c0 .097.314.233.826.233s.827-.136.827-.233a.047.047 0 01.094 0c0 .213-.474.328-.92.328z"/><path d="M2.236 278.072a.047.047 0 01-.047-.047.832.832 0 00-1.663 0 .047.047 0 01-.095 0 .927.927 0 011.852 0 .047.047 0 01-.047.047zM2.47 279.041h-.146a.047.047 0 01-.042-.026l-.173-.342a.047.047 0 11.084-.042l.16.316h.118a.047.047 0 110 .094zM.39 279.043H.245a.047.047 0 010-.095h.118l.16-.316a.047.047 0 01.084.043l-.173.342a.047.047 0 01-.042.026z"/><path d="M1.357 277.193a.047.047 0 01-.047-.047v-.26a.047.047 0 01.094 0v.26a.047.047 0 01-.047.047z"/><path d="M1.357 276.934a.154.154 0 110-.308.154.154 0 010 .308zm0-.213a.059.059 0 100 .118.059.059 0 000-.118z"/></g></svg>